<svg xmlns="http://www.w3.org/2000/svg" xmlns:xlink="http://www.w3.org/1999/xlink" width="500" zoomAndPan="magnify" viewBox="0 0 375 374.999991" height="500" preserveAspectRatio="xMidYMid meet" version="1.0"><defs><g/><clipPath id="c739e0be14"><path d="M 277 153 L 315 153 L 315 167.558594 L 277 167.558594 Z M 277 153 " clip-rule="nonzero"/></clipPath><clipPath id="58967914a0"><path d="M 128 120.308594 L 315.597656 120.308594 L 315.597656 167.558594 L 128 167.558594 Z M 128 120.308594 " clip-rule="nonzero"/></clipPath><clipPath id="989f4fee1e"><path d="M 62.847656 132 L 183 132 L 183 142 L 62.847656 142 Z M 62.847656 132 " clip-rule="nonzero"/></clipPath><clipPath id="06cd1014fc"><path d="M 136 146 L 168 146 L 168 178 L 136 178 Z M 136 146 " clip-rule="nonzero"/></clipPath><clipPath id="9d92c1035c"><path d="M 166.804688 188.632812 L 13.964844 181.601562 L 16.207031 132.902344 L 169.042969 139.933594 Z M 166.804688 188.632812 " clip-rule="nonzero"/></clipPath><clipPath id="e6db9d379e"><path d="M 166.804688 188.632812 L 13.964844 181.601562 L 16.207031 132.902344 L 169.042969 139.933594 Z M 166.804688 188.632812 " clip-rule="nonzero"/></clipPath><clipPath id="8d3d852be9"><path d="M 166.804688 188.632812 L 13.964844 181.601562 L 16.207031 132.902344 L 169.042969 139.933594 Z M 166.804688 188.632812 " clip-rule="nonzero"/></clipPath><clipPath id="74ef5072d6"><path d="M 97 165 L 138 165 L 138 169 L 97 169 Z M 97 165 " clip-rule="nonzero"/></clipPath><clipPath id="a6c6089838"><path d="M 166.804688 188.632812 L 13.964844 181.601562 L 16.207031 132.902344 L 169.042969 139.933594 Z M 166.804688 188.632812 " clip-rule="nonzero"/></clipPath><clipPath id="aec4cfd750"><path d="M 166.804688 188.632812 L 13.964844 181.601562 L 16.207031 132.902344 L 169.042969 139.933594 Z M 166.804688 188.632812 " clip-rule="nonzero"/></clipPath><clipPath id="d1e4f56532"><path d="M 166.804688 188.632812 L 13.964844 181.601562 L 16.207031 132.902344 L 169.042969 139.933594 Z M 166.804688 188.632812 " clip-rule="nonzero"/></clipPath><clipPath id="93b9105f5f"><path d="M 95 164 L 100 164 L 100 169 L 95 169 Z M 95 164 " clip-rule="nonzero"/></clipPath><clipPath id="42933df4e3"><path d="M 166.804688 188.632812 L 13.964844 181.601562 L 16.207031 132.902344 L 169.042969 139.933594 Z M 166.804688 188.632812 " clip-rule="nonzero"/></clipPath><clipPath id="03f385dacf"><path d="M 166.804688 188.632812 L 13.964844 181.601562 L 16.207031 132.902344 L 169.042969 139.933594 Z M 166.804688 188.632812 " clip-rule="nonzero"/></clipPath><clipPath id="b8f562d312"><path d="M 166.804688 188.632812 L 13.964844 181.601562 L 16.207031 132.902344 L 169.042969 139.933594 Z M 166.804688 188.632812 " clip-rule="nonzero"/></clipPath><clipPath id="eb30a6bbff"><path d="M 97 155 L 138 155 L 138 159 L 97 159 Z M 97 155 " clip-rule="nonzero"/></clipPath><clipPath id="9d9c5bb7d6"><path d="M 166.804688 188.632812 L 13.964844 181.601562 L 16.207031 132.902344 L 169.042969 139.933594 Z M 166.804688 188.632812 " clip-rule="nonzero"/></clipPath><clipPath id="fa7db3f90e"><path d="M 166.804688 188.632812 L 13.964844 181.601562 L 16.207031 132.902344 L 169.042969 139.933594 Z M 166.804688 188.632812 " clip-rule="nonzero"/></clipPath><clipPath id="d7e6f0ba9c"><path d="M 166.804688 188.632812 L 13.964844 181.601562 L 16.207031 132.902344 L 169.042969 139.933594 Z M 166.804688 188.632812 " clip-rule="nonzero"/></clipPath><clipPath id="28c44cb427"><path d="M 95 154 L 100 154 L 100 159 L 95 159 Z M 95 154 " clip-rule="nonzero"/></clipPath><clipPath id="afb5b3bce0"><path d="M 166.804688 188.632812 L 13.964844 181.601562 L 16.207031 132.902344 L 169.042969 139.933594 Z M 166.804688 188.632812 " clip-rule="nonzero"/></clipPath><clipPath id="db04e1d01c"><path d="M 166.804688 188.632812 L 13.964844 181.601562 L 16.207031 132.902344 L 169.042969 139.933594 Z M 166.804688 188.632812 " clip-rule="nonzero"/></clipPath><clipPath id="869d8e37a6"><path d="M 166.804688 188.632812 L 13.964844 181.601562 L 16.207031 132.902344 L 169.042969 139.933594 Z M 166.804688 188.632812 " clip-rule="nonzero"/></clipPath><clipPath id="ae456aa73a"><path d="M 94 159 L 138 159 L 138 163 L 94 163 Z M 94 159 " clip-rule="nonzero"/></clipPath><clipPath id="7947d9e929"><path d="M 166.804688 188.632812 L 13.964844 181.601562 L 16.207031 132.902344 L 169.042969 139.933594 Z M 166.804688 188.632812 " clip-rule="nonzero"/></clipPath><clipPath id="5c008d7acc"><path d="M 166.804688 188.632812 L 13.964844 181.601562 L 16.207031 132.902344 L 169.042969 139.933594 Z M 166.804688 188.632812 " clip-rule="nonzero"/></clipPath><clipPath id="772288c327"><path d="M 166.804688 188.632812 L 13.964844 181.601562 L 16.207031 132.902344 L 169.042969 139.933594 Z M 166.804688 188.632812 " clip-rule="nonzero"/></clipPath><clipPath id="d8a6b58f9c"><path d="M 92 157 L 97 157 L 97 163 L 92 163 Z M 92 157 " clip-rule="nonzero"/></clipPath><clipPath id="03e49570e3"><path d="M 166.804688 188.632812 L 13.964844 181.601562 L 16.207031 132.902344 L 169.042969 139.933594 Z M 166.804688 188.632812 " clip-rule="nonzero"/></clipPath><clipPath id="3596f5341e"><path d="M 166.804688 188.632812 L 13.964844 181.601562 L 16.207031 132.902344 L 169.042969 139.933594 Z M 166.804688 188.632812 " clip-rule="nonzero"/></clipPath><clipPath id="1defe40b4e"><path d="M 166.804688 188.632812 L 13.964844 181.601562 L 16.207031 132.902344 L 169.042969 139.933594 Z M 166.804688 188.632812 " clip-rule="nonzero"/></clipPath><clipPath id="8bfb2aad1f"><path d="M 89 148 L 142 148 L 142 152 L 89 152 Z M 89 148 " clip-rule="nonzero"/></clipPath><clipPath id="60c81cb330"><path d="M 166.804688 188.632812 L 13.964844 181.601562 L 16.207031 132.902344 L 169.042969 139.933594 Z M 166.804688 188.632812 " clip-rule="nonzero"/></clipPath><clipPath id="f96fc40e61"><path d="M 166.804688 188.632812 L 13.964844 181.601562 L 16.207031 132.902344 L 169.042969 139.933594 Z M 166.804688 188.632812 " clip-rule="nonzero"/></clipPath><clipPath id="a54bd2e950"><path d="M 166.804688 188.632812 L 13.964844 181.601562 L 16.207031 132.902344 L 169.042969 139.933594 Z M 166.804688 188.632812 " clip-rule="nonzero"/></clipPath><clipPath id="b76cca61ce"><path d="M 87 146 L 92 146 L 92 151 L 87 151 Z M 87 146 " clip-rule="nonzero"/></clipPath><clipPath id="b0ba249d79"><path d="M 166.804688 188.632812 L 13.964844 181.601562 L 16.207031 132.902344 L 169.042969 139.933594 Z M 166.804688 188.632812 " clip-rule="nonzero"/></clipPath><clipPath id="fe5a270185"><path d="M 166.804688 188.632812 L 13.964844 181.601562 L 16.207031 132.902344 L 169.042969 139.933594 Z M 166.804688 188.632812 " clip-rule="nonzero"/></clipPath><clipPath id="1178ce2f9b"><path d="M 166.804688 188.632812 L 13.964844 181.601562 L 16.207031 132.902344 L 169.042969 139.933594 Z M 166.804688 188.632812 " clip-rule="nonzero"/></clipPath><clipPath id="41567b79cd"><path d="M 54 167 L 143 167 L 143 173 L 54 173 Z M 54 167 " clip-rule="nonzero"/></clipPath><clipPath id="29d791588d"><path d="M 166.804688 188.632812 L 13.964844 181.601562 L 16.207031 132.902344 L 169.042969 139.933594 Z M 166.804688 188.632812 " clip-rule="nonzero"/></clipPath><clipPath id="0b33013118"><path d="M 166.804688 188.632812 L 13.964844 181.601562 L 16.207031 132.902344 L 169.042969 139.933594 Z M 166.804688 188.632812 " clip-rule="nonzero"/></clipPath><clipPath id="9e13113bc8"><path d="M 166.804688 188.632812 L 13.964844 181.601562 L 16.207031 132.902344 L 169.042969 139.933594 Z M 166.804688 188.632812 " clip-rule="nonzero"/></clipPath><clipPath id="94a54cb32d"><path d="M 52 166 L 57 166 L 57 171 L 52 171 Z M 52 166 " clip-rule="nonzero"/></clipPath><clipPath id="d960654729"><path d="M 166.804688 188.632812 L 13.964844 181.601562 L 16.207031 132.902344 L 169.042969 139.933594 Z M 166.804688 188.632812 " clip-rule="nonzero"/></clipPath><clipPath id="e145350630"><path d="M 166.804688 188.632812 L 13.964844 181.601562 L 16.207031 132.902344 L 169.042969 139.933594 Z M 166.804688 188.632812 " clip-rule="nonzero"/></clipPath><clipPath id="a17c74ab6b"><path d="M 166.804688 188.632812 L 13.964844 181.601562 L 16.207031 132.902344 L 169.042969 139.933594 Z M 166.804688 188.632812 " clip-rule="nonzero"/></clipPath><clipPath id="f943d47ddd"><path d="M 38 167 L 54 167 L 54 182 L 38 182 Z M 38 167 " clip-rule="nonzero"/></clipPath><clipPath id="2354b01dff"><path d="M 166.804688 188.632812 L 13.964844 181.601562 L 16.207031 132.902344 L 169.042969 139.933594 Z M 166.804688 188.632812 " clip-rule="nonzero"/></clipPath><clipPath id="dcf082455e"><path d="M 166.804688 188.632812 L 13.964844 181.601562 L 16.207031 132.902344 L 169.042969 139.933594 Z M 166.804688 188.632812 " clip-rule="nonzero"/></clipPath><clipPath id="aa977d1905"><path d="M 166.804688 188.632812 L 13.964844 181.601562 L 16.207031 132.902344 L 169.042969 139.933594 Z M 166.804688 188.632812 " clip-rule="nonzero"/></clipPath><clipPath id="1f3dbb8eb7"><path d="M 36 178 L 41 178 L 41 183 L 36 183 Z M 36 178 " clip-rule="nonzero"/></clipPath><clipPath id="9cc919b6cc"><path d="M 166.804688 188.632812 L 13.964844 181.601562 L 16.207031 132.902344 L 169.042969 139.933594 Z M 166.804688 188.632812 " clip-rule="nonzero"/></clipPath><clipPath id="96db0d5551"><path d="M 166.804688 188.632812 L 13.964844 181.601562 L 16.207031 132.902344 L 169.042969 139.933594 Z M 166.804688 188.632812 " clip-rule="nonzero"/></clipPath><clipPath id="25711679b0"><path d="M 166.804688 188.632812 L 13.964844 181.601562 L 16.207031 132.902344 L 169.042969 139.933594 Z M 166.804688 188.632812 " clip-rule="nonzero"/></clipPath><clipPath id="a9eadfbf37"><path d="M 15 180 L 39 180 L 39 182 L 15 182 Z M 15 180 " clip-rule="nonzero"/></clipPath><clipPath id="ec8fc73d9e"><path d="M 166.804688 188.632812 L 13.964844 181.601562 L 16.207031 132.902344 L 169.042969 139.933594 Z M 166.804688 188.632812 " clip-rule="nonzero"/></clipPath><clipPath id="a393329095"><path d="M 166.804688 188.632812 L 13.964844 181.601562 L 16.207031 132.902344 L 169.042969 139.933594 Z M 166.804688 188.632812 " clip-rule="nonzero"/></clipPath><clipPath id="17d396c923"><path d="M 166.804688 188.632812 L 13.964844 181.601562 L 16.207031 132.902344 L 169.042969 139.933594 Z M 166.804688 188.632812 " clip-rule="nonzero"/></clipPath><clipPath id="5034af64ec"><path d="M 14 179 L 17 179 L 17 182 L 14 182 Z M 14 179 " clip-rule="nonzero"/></clipPath><clipPath id="243125dbe0"><path d="M 166.804688 188.632812 L 13.964844 181.601562 L 16.207031 132.902344 L 169.042969 139.933594 Z M 166.804688 188.632812 " clip-rule="nonzero"/></clipPath><clipPath id="1b67a8fb08"><path d="M 166.804688 188.632812 L 13.964844 181.601562 L 16.207031 132.902344 L 169.042969 139.933594 Z M 166.804688 188.632812 " clip-rule="nonzero"/></clipPath><clipPath id="9c3d44ad4e"><path d="M 166.804688 188.632812 L 13.964844 181.601562 L 16.207031 132.902344 L 169.042969 139.933594 Z M 166.804688 188.632812 " clip-rule="nonzero"/></clipPath><clipPath id="4649afa390"><path d="M 20 175 L 43 175 L 43 178 L 20 178 Z M 20 175 " clip-rule="nonzero"/></clipPath><clipPath id="5e1dcebdc4"><path d="M 166.804688 188.632812 L 13.964844 181.601562 L 16.207031 132.902344 L 169.042969 139.933594 Z M 166.804688 188.632812 " clip-rule="nonzero"/></clipPath><clipPath id="9b90ae54d5"><path d="M 166.804688 188.632812 L 13.964844 181.601562 L 16.207031 132.902344 L 169.042969 139.933594 Z M 166.804688 188.632812 " clip-rule="nonzero"/></clipPath><clipPath id="9c8a9eea0c"><path d="M 166.804688 188.632812 L 13.964844 181.601562 L 16.207031 132.902344 L 169.042969 139.933594 Z M 166.804688 188.632812 " clip-rule="nonzero"/></clipPath><clipPath id="0fcff4561f"><path d="M 19 174 L 22 174 L 22 177 L 19 177 Z M 19 174 " clip-rule="nonzero"/></clipPath><clipPath id="429e5c7180"><path d="M 166.804688 188.632812 L 13.964844 181.601562 L 16.207031 132.902344 L 169.042969 139.933594 Z M 166.804688 188.632812 " clip-rule="nonzero"/></clipPath><clipPath id="4a6eed1daa"><path d="M 166.804688 188.632812 L 13.964844 181.601562 L 16.207031 132.902344 L 169.042969 139.933594 Z M 166.804688 188.632812 " clip-rule="nonzero"/></clipPath><clipPath id="41bf2624ef"><path d="M 166.804688 188.632812 L 13.964844 181.601562 L 16.207031 132.902344 L 169.042969 139.933594 Z M 166.804688 188.632812 " clip-rule="nonzero"/></clipPath><clipPath id="b609138d08"><path d="M 16 170 L 47 170 L 47 173 L 16 173 Z M 16 170 " clip-rule="nonzero"/></clipPath><clipPath id="6eed9a6e24"><path d="M 166.804688 188.632812 L 13.964844 181.601562 L 16.207031 132.902344 L 169.042969 139.933594 Z M 166.804688 188.632812 " clip-rule="nonzero"/></clipPath><clipPath id="9c11179e6e"><path d="M 166.804688 188.632812 L 13.964844 181.601562 L 16.207031 132.902344 L 169.042969 139.933594 Z M 166.804688 188.632812 " clip-rule="nonzero"/></clipPath><clipPath id="3b18b5dfee"><path d="M 166.804688 188.632812 L 13.964844 181.601562 L 16.207031 132.902344 L 169.042969 139.933594 Z M 166.804688 188.632812 " clip-rule="nonzero"/></clipPath><clipPath id="0b51cdc467"><path d="M 15 169 L 19 169 L 19 172 L 15 172 Z M 15 169 " clip-rule="nonzero"/></clipPath><clipPath id="979def1e71"><path d="M 166.804688 188.632812 L 13.964844 181.601562 L 16.207031 132.902344 L 169.042969 139.933594 Z M 166.804688 188.632812 " clip-rule="nonzero"/></clipPath><clipPath id="78303cc634"><path d="M 166.804688 188.632812 L 13.964844 181.601562 L 16.207031 132.902344 L 169.042969 139.933594 Z M 166.804688 188.632812 " clip-rule="nonzero"/></clipPath><clipPath id="14ea739b2e"><path d="M 166.804688 188.632812 L 13.964844 181.601562 L 16.207031 132.902344 L 169.042969 139.933594 Z M 166.804688 188.632812 " clip-rule="nonzero"/></clipPath><clipPath id="b0008d04af"><path d="M 72 148 L 89 148 L 89 163 L 72 163 Z M 72 148 " clip-rule="nonzero"/></clipPath><clipPath id="209f4d5b41"><path d="M 166.804688 188.632812 L 13.964844 181.601562 L 16.207031 132.902344 L 169.042969 139.933594 Z M 166.804688 188.632812 " clip-rule="nonzero"/></clipPath><clipPath id="9fb93042dd"><path d="M 166.804688 188.632812 L 13.964844 181.601562 L 16.207031 132.902344 L 169.042969 139.933594 Z M 166.804688 188.632812 " clip-rule="nonzero"/></clipPath><clipPath id="c472f92719"><path d="M 166.804688 188.632812 L 13.964844 181.601562 L 16.207031 132.902344 L 169.042969 139.933594 Z M 166.804688 188.632812 " clip-rule="nonzero"/></clipPath><clipPath id="e1ff7b86ba"><path d="M 71 160 L 75 160 L 75 165 L 71 165 Z M 71 160 " clip-rule="nonzero"/></clipPath><clipPath id="3538d9595f"><path d="M 166.804688 188.632812 L 13.964844 181.601562 L 16.207031 132.902344 L 169.042969 139.933594 Z M 166.804688 188.632812 " clip-rule="nonzero"/></clipPath><clipPath id="012b6f1e61"><path d="M 166.804688 188.632812 L 13.964844 181.601562 L 16.207031 132.902344 L 169.042969 139.933594 Z M 166.804688 188.632812 " clip-rule="nonzero"/></clipPath><clipPath id="5682b308e8"><path d="M 166.804688 188.632812 L 13.964844 181.601562 L 16.207031 132.902344 L 169.042969 139.933594 Z M 166.804688 188.632812 " clip-rule="nonzero"/></clipPath><clipPath id="0bf9224a88"><path d="M 79 137 L 97 137 L 97 157 L 79 157 Z M 79 137 " clip-rule="nonzero"/></clipPath><clipPath id="4c35cf3982"><path d="M 166.804688 188.632812 L 13.964844 181.601562 L 16.207031 132.902344 L 169.042969 139.933594 Z M 166.804688 188.632812 " clip-rule="nonzero"/></clipPath><clipPath id="64dace900a"><path d="M 166.804688 188.632812 L 13.964844 181.601562 L 16.207031 132.902344 L 169.042969 139.933594 Z M 166.804688 188.632812 " clip-rule="nonzero"/></clipPath><clipPath id="78bae3d417"><path d="M 166.804688 188.632812 L 13.964844 181.601562 L 16.207031 132.902344 L 169.042969 139.933594 Z M 166.804688 188.632812 " clip-rule="nonzero"/></clipPath><clipPath id="ac22cc6586"><path d="M 77 136 L 82 136 L 82 140 L 77 140 Z M 77 136 " clip-rule="nonzero"/></clipPath><clipPath id="2ec207eb24"><path d="M 166.804688 188.632812 L 13.964844 181.601562 L 16.207031 132.902344 L 169.042969 139.933594 Z M 166.804688 188.632812 " clip-rule="nonzero"/></clipPath><clipPath id="00286d5336"><path d="M 166.804688 188.632812 L 13.964844 181.601562 L 16.207031 132.902344 L 169.042969 139.933594 Z M 166.804688 188.632812 " clip-rule="nonzero"/></clipPath><clipPath id="a487539e82"><path d="M 166.804688 188.632812 L 13.964844 181.601562 L 16.207031 132.902344 L 169.042969 139.933594 Z M 166.804688 188.632812 " clip-rule="nonzero"/></clipPath><clipPath id="173f99d062"><path d="M 80 165 L 97 165 L 97 181 L 80 181 Z M 80 165 " clip-rule="nonzero"/></clipPath><clipPath id="b12200ef4a"><path d="M 166.804688 188.632812 L 13.964844 181.601562 L 16.207031 132.902344 L 169.042969 139.933594 Z M 166.804688 188.632812 " clip-rule="nonzero"/></clipPath><clipPath id="bdaf03d8d6"><path d="M 166.804688 188.632812 L 13.964844 181.601562 L 16.207031 132.902344 L 169.042969 139.933594 Z M 166.804688 188.632812 " clip-rule="nonzero"/></clipPath><clipPath id="ce9c8f34d4"><path d="M 166.804688 188.632812 L 13.964844 181.601562 L 16.207031 132.902344 L 169.042969 139.933594 Z M 166.804688 188.632812 " clip-rule="nonzero"/></clipPath><clipPath id="2ee132b283"><path d="M 78 178 L 83 178 L 83 182 L 78 182 Z M 78 178 " clip-rule="nonzero"/></clipPath><clipPath id="5177677b11"><path d="M 166.804688 188.632812 L 13.964844 181.601562 L 16.207031 132.902344 L 169.042969 139.933594 Z M 166.804688 188.632812 " clip-rule="nonzero"/></clipPath><clipPath id="a2e7e9b25d"><path d="M 166.804688 188.632812 L 13.964844 181.601562 L 16.207031 132.902344 L 169.042969 139.933594 Z M 166.804688 188.632812 " clip-rule="nonzero"/></clipPath><clipPath id="0447b0b733"><path d="M 166.804688 188.632812 L 13.964844 181.601562 L 16.207031 132.902344 L 169.042969 139.933594 Z M 166.804688 188.632812 " clip-rule="nonzero"/></clipPath><clipPath id="aa415022fa"><path d="M 75 159 L 94 159 L 94 176 L 75 176 Z M 75 159 " clip-rule="nonzero"/></clipPath><clipPath id="13de82c788"><path d="M 166.804688 188.632812 L 13.964844 181.601562 L 16.207031 132.902344 L 169.042969 139.933594 Z M 166.804688 188.632812 " clip-rule="nonzero"/></clipPath><clipPath id="415644470e"><path d="M 166.804688 188.632812 L 13.964844 181.601562 L 16.207031 132.902344 L 169.042969 139.933594 Z M 166.804688 188.632812 " clip-rule="nonzero"/></clipPath><clipPath id="3628ebf089"><path d="M 166.804688 188.632812 L 13.964844 181.601562 L 16.207031 132.902344 L 169.042969 139.933594 Z M 166.804688 188.632812 " clip-rule="nonzero"/></clipPath><clipPath id="a987e5ac35"><path d="M 74 173 L 78 173 L 78 178 L 74 178 Z M 74 173 " clip-rule="nonzero"/></clipPath><clipPath id="b3ccf67f55"><path d="M 166.804688 188.632812 L 13.964844 181.601562 L 16.207031 132.902344 L 169.042969 139.933594 Z M 166.804688 188.632812 " clip-rule="nonzero"/></clipPath><clipPath id="b81accc0ff"><path d="M 166.804688 188.632812 L 13.964844 181.601562 L 16.207031 132.902344 L 169.042969 139.933594 Z M 166.804688 188.632812 " clip-rule="nonzero"/></clipPath><clipPath id="987430ec6a"><path d="M 166.804688 188.632812 L 13.964844 181.601562 L 16.207031 132.902344 L 169.042969 139.933594 Z M 166.804688 188.632812 " clip-rule="nonzero"/></clipPath><clipPath id="a8a72289ae"><path d="M 49 161 L 72 161 L 72 164 L 49 164 Z M 49 161 " clip-rule="nonzero"/></clipPath><clipPath id="c15067cd57"><path d="M 166.804688 188.632812 L 13.964844 181.601562 L 16.207031 132.902344 L 169.042969 139.933594 Z M 166.804688 188.632812 " clip-rule="nonzero"/></clipPath><clipPath id="ecfa09dcda"><path d="M 166.804688 188.632812 L 13.964844 181.601562 L 16.207031 132.902344 L 169.042969 139.933594 Z M 166.804688 188.632812 " clip-rule="nonzero"/></clipPath><clipPath id="66a86f3391"><path d="M 166.804688 188.632812 L 13.964844 181.601562 L 16.207031 132.902344 L 169.042969 139.933594 Z M 166.804688 188.632812 " clip-rule="nonzero"/></clipPath><clipPath id="43a39d6f52"><path d="M 48 160 L 51 160 L 51 163 L 48 163 Z M 48 160 " clip-rule="nonzero"/></clipPath><clipPath id="d7e228301f"><path d="M 166.804688 188.632812 L 13.964844 181.601562 L 16.207031 132.902344 L 169.042969 139.933594 Z M 166.804688 188.632812 " clip-rule="nonzero"/></clipPath><clipPath id="e2b7ce9a79"><path d="M 166.804688 188.632812 L 13.964844 181.601562 L 16.207031 132.902344 L 169.042969 139.933594 Z M 166.804688 188.632812 " clip-rule="nonzero"/></clipPath><clipPath id="824e963573"><path d="M 166.804688 188.632812 L 13.964844 181.601562 L 16.207031 132.902344 L 169.042969 139.933594 Z M 166.804688 188.632812 " clip-rule="nonzero"/></clipPath><clipPath id="3ac10fc769"><path d="M 65 158 L 77 158 L 77 160 L 65 160 Z M 65 158 " clip-rule="nonzero"/></clipPath><clipPath id="211e1acc8b"><path d="M 166.804688 188.632812 L 13.964844 181.601562 L 16.207031 132.902344 L 169.042969 139.933594 Z M 166.804688 188.632812 " clip-rule="nonzero"/></clipPath><clipPath id="cfec89dd5d"><path d="M 166.804688 188.632812 L 13.964844 181.601562 L 16.207031 132.902344 L 169.042969 139.933594 Z M 166.804688 188.632812 " clip-rule="nonzero"/></clipPath><clipPath id="9124b56570"><path d="M 166.804688 188.632812 L 13.964844 181.601562 L 16.207031 132.902344 L 169.042969 139.933594 Z M 166.804688 188.632812 " clip-rule="nonzero"/></clipPath><clipPath id="60a9cb9f55"><path d="M 64 157 L 67 157 L 67 160 L 64 160 Z M 64 157 " clip-rule="nonzero"/></clipPath><clipPath id="5cbca1dcf1"><path d="M 166.804688 188.632812 L 13.964844 181.601562 L 16.207031 132.902344 L 169.042969 139.933594 Z M 166.804688 188.632812 " clip-rule="nonzero"/></clipPath><clipPath id="75ca410399"><path d="M 166.804688 188.632812 L 13.964844 181.601562 L 16.207031 132.902344 L 169.042969 139.933594 Z M 166.804688 188.632812 " clip-rule="nonzero"/></clipPath><clipPath id="9903459178"><path d="M 166.804688 188.632812 L 13.964844 181.601562 L 16.207031 132.902344 L 169.042969 139.933594 Z M 166.804688 188.632812 " clip-rule="nonzero"/></clipPath><clipPath id="49775491b5"><path d="M 63 153 L 82 153 L 82 156 L 63 156 Z M 63 153 " clip-rule="nonzero"/></clipPath><clipPath id="2c03d8752a"><path d="M 166.804688 188.632812 L 13.964844 181.601562 L 16.207031 132.902344 L 169.042969 139.933594 Z M 166.804688 188.632812 " clip-rule="nonzero"/></clipPath><clipPath id="7d57b86541"><path d="M 166.804688 188.632812 L 13.964844 181.601562 L 16.207031 132.902344 L 169.042969 139.933594 Z M 166.804688 188.632812 " clip-rule="nonzero"/></clipPath><clipPath id="f8148c73c3"><path d="M 166.804688 188.632812 L 13.964844 181.601562 L 16.207031 132.902344 L 169.042969 139.933594 Z M 166.804688 188.632812 " clip-rule="nonzero"/></clipPath><clipPath id="6acf6b6ba9"><path d="M 62 152 L 65 152 L 65 156 L 62 156 Z M 62 152 " clip-rule="nonzero"/></clipPath><clipPath id="0a37670153"><path d="M 166.804688 188.632812 L 13.964844 181.601562 L 16.207031 132.902344 L 169.042969 139.933594 Z M 166.804688 188.632812 " clip-rule="nonzero"/></clipPath><clipPath id="f85d223b76"><path d="M 166.804688 188.632812 L 13.964844 181.601562 L 16.207031 132.902344 L 169.042969 139.933594 Z M 166.804688 188.632812 " clip-rule="nonzero"/></clipPath><clipPath id="49c62fc60f"><path d="M 166.804688 188.632812 L 13.964844 181.601562 L 16.207031 132.902344 L 169.042969 139.933594 Z M 166.804688 188.632812 " clip-rule="nonzero"/></clipPath><clipPath id="8cdecbc877"><path d="M 64 179 L 81 179 L 81 181 L 64 181 Z M 64 179 " clip-rule="nonzero"/></clipPath><clipPath id="8cd3b03ab2"><path d="M 166.804688 188.632812 L 13.964844 181.601562 L 16.207031 132.902344 L 169.042969 139.933594 Z M 166.804688 188.632812 " clip-rule="nonzero"/></clipPath><clipPath id="7f9e115128"><path d="M 166.804688 188.632812 L 13.964844 181.601562 L 16.207031 132.902344 L 169.042969 139.933594 Z M 166.804688 188.632812 " clip-rule="nonzero"/></clipPath><clipPath id="be58acb14c"><path d="M 166.804688 188.632812 L 13.964844 181.601562 L 16.207031 132.902344 L 169.042969 139.933594 Z M 166.804688 188.632812 " clip-rule="nonzero"/></clipPath><clipPath id="042ebdfd11"><path d="M 63 178 L 66 178 L 66 181 L 63 181 Z M 63 178 " clip-rule="nonzero"/></clipPath><clipPath id="00e4dc0398"><path d="M 166.804688 188.632812 L 13.964844 181.601562 L 16.207031 132.902344 L 169.042969 139.933594 Z M 166.804688 188.632812 " clip-rule="nonzero"/></clipPath><clipPath id="e5b32e01dd"><path d="M 166.804688 188.632812 L 13.964844 181.601562 L 16.207031 132.902344 L 169.042969 139.933594 Z M 166.804688 188.632812 " clip-rule="nonzero"/></clipPath><clipPath id="acfbd77d28"><path d="M 166.804688 188.632812 L 13.964844 181.601562 L 16.207031 132.902344 L 169.042969 139.933594 Z M 166.804688 188.632812 " clip-rule="nonzero"/></clipPath><clipPath id="9f56ead011"><path d="M 58 174 L 76 174 L 76 177 L 58 177 Z M 58 174 " clip-rule="nonzero"/></clipPath><clipPath id="44cabc5444"><path d="M 166.804688 188.632812 L 13.964844 181.601562 L 16.207031 132.902344 L 169.042969 139.933594 Z M 166.804688 188.632812 " clip-rule="nonzero"/></clipPath><clipPath id="fd5bf13f86"><path d="M 166.804688 188.632812 L 13.964844 181.601562 L 16.207031 132.902344 L 169.042969 139.933594 Z M 166.804688 188.632812 " clip-rule="nonzero"/></clipPath><clipPath id="5c5d6af84a"><path d="M 166.804688 188.632812 L 13.964844 181.601562 L 16.207031 132.902344 L 169.042969 139.933594 Z M 166.804688 188.632812 " clip-rule="nonzero"/></clipPath><clipPath id="12043fc704"><path d="M 57 173 L 60 173 L 60 177 L 57 177 Z M 57 173 " clip-rule="nonzero"/></clipPath><clipPath id="6132ccdc39"><path d="M 166.804688 188.632812 L 13.964844 181.601562 L 16.207031 132.902344 L 169.042969 139.933594 Z M 166.804688 188.632812 " clip-rule="nonzero"/></clipPath><clipPath id="d4c6d7c5f6"><path d="M 166.804688 188.632812 L 13.964844 181.601562 L 16.207031 132.902344 L 169.042969 139.933594 Z M 166.804688 188.632812 " clip-rule="nonzero"/></clipPath><clipPath id="cd5864ab90"><path d="M 166.804688 188.632812 L 13.964844 181.601562 L 16.207031 132.902344 L 169.042969 139.933594 Z M 166.804688 188.632812 " clip-rule="nonzero"/></clipPath><clipPath id="f61a25130e"><path d="M 58 135 L 79 135 L 79 138 L 58 138 Z M 58 135 " clip-rule="nonzero"/></clipPath><clipPath id="487e707539"><path d="M 166.804688 188.632812 L 13.964844 181.601562 L 16.207031 132.902344 L 169.042969 139.933594 Z M 166.804688 188.632812 " clip-rule="nonzero"/></clipPath><clipPath id="2f9b119784"><path d="M 166.804688 188.632812 L 13.964844 181.601562 L 16.207031 132.902344 L 169.042969 139.933594 Z M 166.804688 188.632812 " clip-rule="nonzero"/></clipPath><clipPath id="74b290355f"><path d="M 166.804688 188.632812 L 13.964844 181.601562 L 16.207031 132.902344 L 169.042969 139.933594 Z M 166.804688 188.632812 " clip-rule="nonzero"/></clipPath><clipPath id="9e9a47d9b2"><path d="M 67 135 L 70 135 L 70 138 L 67 138 Z M 67 135 " clip-rule="nonzero"/></clipPath><clipPath id="3ae2e89f86"><path d="M 166.804688 188.632812 L 13.964844 181.601562 L 16.207031 132.902344 L 169.042969 139.933594 Z M 166.804688 188.632812 " clip-rule="nonzero"/></clipPath><clipPath id="f1d3c07794"><path d="M 166.804688 188.632812 L 13.964844 181.601562 L 16.207031 132.902344 L 169.042969 139.933594 Z M 166.804688 188.632812 " clip-rule="nonzero"/></clipPath><clipPath id="702f3c1ebe"><path d="M 166.804688 188.632812 L 13.964844 181.601562 L 16.207031 132.902344 L 169.042969 139.933594 Z M 166.804688 188.632812 " clip-rule="nonzero"/></clipPath><clipPath id="4feca996b9"><path d="M 65 138 L 81 138 L 81 140 L 65 140 Z M 65 138 " clip-rule="nonzero"/></clipPath><clipPath id="4c3dd1e6c3"><path d="M 166.804688 188.632812 L 13.964844 181.601562 L 16.207031 132.902344 L 169.042969 139.933594 Z M 166.804688 188.632812 " clip-rule="nonzero"/></clipPath><clipPath id="27f9379b65"><path d="M 166.804688 188.632812 L 13.964844 181.601562 L 16.207031 132.902344 L 169.042969 139.933594 Z M 166.804688 188.632812 " clip-rule="nonzero"/></clipPath><clipPath id="1b0490d3f0"><path d="M 166.804688 188.632812 L 13.964844 181.601562 L 16.207031 132.902344 L 169.042969 139.933594 Z M 166.804688 188.632812 " clip-rule="nonzero"/></clipPath><clipPath id="877ff91351"><path d="M 64 137 L 67 137 L 67 140 L 64 140 Z M 64 137 " clip-rule="nonzero"/></clipPath><clipPath id="493abdce54"><path d="M 166.804688 188.632812 L 13.964844 181.601562 L 16.207031 132.902344 L 169.042969 139.933594 Z M 166.804688 188.632812 " clip-rule="nonzero"/></clipPath><clipPath id="c72ce7f3c4"><path d="M 166.804688 188.632812 L 13.964844 181.601562 L 16.207031 132.902344 L 169.042969 139.933594 Z M 166.804688 188.632812 " clip-rule="nonzero"/></clipPath><clipPath id="ef293a59a1"><path d="M 166.804688 188.632812 L 13.964844 181.601562 L 16.207031 132.902344 L 169.042969 139.933594 Z M 166.804688 188.632812 " clip-rule="nonzero"/></clipPath></defs><g clip-path="url(#c739e0be14)"><path fill="#df4861" d="M 314.542969 167.480469 C 314.246094 166.632812 313.878906 165.816406 313.433594 165.035156 C 313.320312 164.839844 313.214844 164.640625 313.09375 164.453125 L 312.726562 163.878906 C 312.46875 163.507812 312.203125 163.136719 311.921875 162.78125 C 310.777344 161.34375 309.46875 160.078125 307.996094 158.980469 C 304.996094 156.773438 301.675781 155.269531 298.039062 154.464844 C 297.59375 154.359375 297.140625 154.28125 296.691406 154.191406 C 296.464844 154.152344 296.238281 154.117188 296.011719 154.082031 C 295.785156 154.042969 295.558594 154.007812 295.332031 153.980469 L 294.652344 153.902344 L 293.96875 153.839844 C 293.511719 153.792969 293.054688 153.773438 292.597656 153.75 C 291.6875 153.730469 290.773438 153.71875 289.863281 153.777344 C 289.636719 153.789062 289.40625 153.800781 289.179688 153.820312 C 288.953125 153.839844 288.726562 153.855469 288.5 153.878906 C 288.046875 153.929688 287.59375 153.980469 287.144531 154.050781 C 286.246094 154.179688 285.355469 154.355469 284.472656 154.578125 C 284.03125 154.683594 283.597656 154.808594 283.164062 154.9375 C 282.730469 155.074219 282.300781 155.210938 281.875 155.367188 C 280.175781 155.972656 278.574219 156.769531 277.070312 157.761719 C 277.925781 157.515625 278.78125 157.289062 279.632812 157.085938 C 280.488281 156.878906 281.34375 156.710938 282.199219 156.566406 C 283.050781 156.414062 283.910156 156.300781 284.765625 156.210938 C 285.195312 156.164062 285.621094 156.128906 286.050781 156.09375 C 286.480469 156.066406 286.90625 156.039062 287.335938 156.023438 C 289.042969 155.953125 290.75 155.992188 292.453125 156.136719 C 293.296875 156.222656 294.144531 156.304688 294.980469 156.445312 C 295.191406 156.476562 295.398438 156.511719 295.609375 156.546875 C 295.816406 156.582031 296.027344 156.617188 296.234375 156.65625 C 296.648438 156.742188 297.066406 156.820312 297.476562 156.921875 C 300.808594 157.65625 303.945312 158.890625 306.890625 160.617188 C 309.90625 162.386719 312.457031 164.671875 314.542969 167.480469 Z M 314.542969 167.480469 " fill-opacity="1" fill-rule="nonzero"/></g><g clip-path="url(#58967914a0)"><path fill="#df4861" d="M 151.527344 126.050781 C 155.59375 124.878906 159.703125 123.851562 163.859375 122.972656 C 164.894531 122.738281 165.9375 122.546875 166.984375 122.355469 C 167.503906 122.261719 168.027344 122.15625 168.550781 122.066406 L 170.125 121.820312 L 171.699219 121.570312 C 172.226562 121.488281 172.753906 121.429688 173.28125 121.355469 C 174.335938 121.226562 175.390625 121.066406 176.449219 120.972656 L 178.039062 120.816406 C 178.570312 120.761719 179.101562 120.703125 179.632812 120.675781 C 180.695312 120.605469 181.757812 120.523438 182.824219 120.464844 L 186.035156 120.378906 C 187.109375 120.386719 188.179688 120.414062 189.25 120.429688 C 193.546875 120.585938 197.800781 121.082031 202.015625 121.917969 C 206.21875 122.761719 210.347656 123.886719 214.394531 125.300781 C 218.421875 126.714844 222.367188 128.332031 226.230469 130.152344 C 227.191406 130.609375 228.15625 131.054688 229.101562 131.539062 C 230.050781 132.019531 231.011719 132.476562 231.945312 132.976562 C 232.886719 133.472656 233.832031 133.953125 234.765625 134.460938 L 237.546875 135.96875 C 239.386719 136.972656 241.21875 137.949219 243.082031 138.792969 C 244.011719 139.21875 244.953125 139.609375 245.90625 139.953125 C 246.847656 140.300781 247.808594 140.601562 248.78125 140.855469 L 249.511719 141.035156 L 250.257812 141.191406 C 250.753906 141.304688 251.261719 141.378906 251.765625 141.476562 C 252.777344 141.640625 253.796875 141.789062 254.824219 141.90625 C 256.882812 142.144531 258.96875 142.308594 261.074219 142.476562 C 263.179688 142.648438 265.304688 142.828125 267.433594 143.117188 L 273.703125 144.070312 C 275.789062 144.382812 277.878906 144.703125 279.96875 145.058594 C 282.058594 145.414062 284.148438 145.796875 286.226562 146.257812 C 288.300781 146.714844 290.371094 147.222656 292.417969 147.820312 C 294.472656 148.410156 296.488281 149.105469 298.472656 149.902344 C 300.457031 150.707031 302.375 151.652344 304.222656 152.742188 C 306.078125 153.832031 307.789062 155.109375 309.363281 156.578125 C 310.929688 158.050781 312.257812 159.714844 313.339844 161.574219 C 314.398438 163.425781 315.148438 165.394531 315.597656 167.480469 C 315 165.457031 314.121094 163.566406 312.960938 161.808594 C 311.800781 160.066406 310.421875 158.527344 308.816406 157.1875 C 305.632812 154.515625 301.863281 152.636719 297.953125 151.253906 C 294.035156 149.847656 289.960938 148.890625 285.847656 148.148438 C 283.789062 147.78125 281.71875 147.453125 279.640625 147.160156 C 277.566406 146.867188 275.480469 146.605469 273.390625 146.347656 L 267.125 145.570312 C 265.070312 145.34375 262.992188 145.199219 260.886719 145.070312 C 258.785156 144.941406 256.664062 144.824219 254.527344 144.601562 C 253.460938 144.496094 252.390625 144.355469 251.320312 144.195312 C 250.785156 144.101562 250.25 144.027344 249.714844 143.914062 L 248.914062 143.757812 L 248.101562 143.570312 C 245.96875 143.039062 243.902344 142.316406 241.902344 141.40625 C 239.917969 140.527344 238.019531 139.53125 236.152344 138.535156 L 233.371094 137.042969 C 232.449219 136.546875 231.515625 136.074219 230.589844 135.589844 C 229.667969 135.097656 228.722656 134.652344 227.789062 134.183594 C 226.859375 133.710938 225.910156 133.273438 224.964844 132.828125 C 221.199219 131.042969 217.351562 129.453125 213.425781 128.058594 C 209.507812 126.660156 205.519531 125.53125 201.453125 124.667969 C 197.386719 123.8125 193.28125 123.265625 189.136719 123.039062 C 188.097656 123.003906 187.0625 122.957031 186.027344 122.929688 L 182.914062 122.945312 C 181.871094 122.976562 180.832031 123.027344 179.789062 123.066406 C 179.265625 123.078125 178.746094 123.125 178.226562 123.160156 L 176.664062 123.273438 C 175.621094 123.332031 174.585938 123.464844 173.546875 123.5625 C 173.027344 123.621094 172.503906 123.664062 171.988281 123.730469 L 170.433594 123.933594 L 168.875 124.136719 C 168.359375 124.210938 167.84375 124.296875 167.324219 124.375 C 166.292969 124.542969 165.253906 124.683594 164.222656 124.875 C 160.09375 125.582031 155.984375 126.453125 151.902344 127.457031 C 144.097656 129.328125 136.386719 131.632812 128.664062 133.910156 L 128.441406 133.902344 C 136.035156 131.019531 143.707031 128.332031 151.527344 126.050781 Z M 151.527344 126.050781 " fill-opacity="1" fill-rule="nonzero"/></g><g clip-path="url(#989f4fee1e)"><path fill="#ffffff" d="M 128.441406 134.636719 L 128.664062 134.644531 L 156.085938 135.71875 L 182.894531 141.019531 L 62.847656 132.066406 Z M 128.441406 134.636719 " fill-opacity="1" fill-rule="nonzero"/></g><path fill="#ffffff" d="M 231.574219 149.925781 L 89.402344 139.320312 L 199.824219 143.644531 Z M 231.574219 149.925781 " fill-opacity="1" fill-rule="nonzero"/><path fill="#ffffff" d="M 271.671875 158.003906 L 129.5 147.398438 L 239.925781 151.726562 Z M 271.671875 158.003906 " fill-opacity="1" fill-rule="nonzero"/><g fill="#000000" fill-opacity="1"><g transform="translate(48.281251, 228.655809)"><g><path d="M 36.65625 -3.515625 C 35.570312 -2.992188 34.457031 -2.484375 33.3125 -1.984375 C 32.164062 -1.484375 30.941406 -1.046875 29.640625 -0.671875 C 28.335938 -0.304688 26.914062 -0.0195312 25.375 0.1875 C 23.84375 0.40625 22.164062 0.515625 20.34375 0.515625 C 14.539062 0.515625 10.066406 -0.78125 6.921875 -3.375 C 3.773438 -5.976562 2.203125 -10.3125 2.203125 -16.375 C 2.203125 -19.882812 2.742188 -23.1875 3.828125 -26.28125 C 4.910156 -29.382812 6.515625 -32.09375 8.640625 -34.40625 C 10.765625 -36.726562 13.382812 -38.5625 16.5 -39.90625 C 19.625 -41.25 23.203125 -41.921875 27.234375 -41.921875 C 29.140625 -41.921875 30.882812 -41.789062 32.46875 -41.53125 C 34.050781 -41.269531 35.476562 -40.929688 36.75 -40.515625 C 38.03125 -40.109375 39.179688 -39.664062 40.203125 -39.1875 C 41.222656 -38.71875 42.144531 -38.265625 42.96875 -37.828125 L 40.625 -25.734375 L 28.921875 -25.734375 C 28.960938 -26.171875 29.015625 -26.734375 29.078125 -27.421875 C 29.148438 -28.117188 29.207031 -28.820312 29.25 -29.53125 C 29.289062 -30.25 29.332031 -30.953125 29.375 -31.640625 C 29.414062 -32.335938 29.4375 -32.925781 29.4375 -33.40625 C 29.4375 -33.757812 29.414062 -34.160156 29.375 -34.609375 C 29.332031 -35.066406 29.222656 -35.507812 29.046875 -35.9375 C 28.878906 -36.375 28.609375 -36.734375 28.234375 -37.015625 C 27.867188 -37.296875 27.382812 -37.4375 26.78125 -37.4375 C 25.65625 -37.4375 24.625 -36.96875 23.6875 -36.03125 C 22.757812 -35.101562 21.925781 -33.867188 21.1875 -32.328125 C 20.445312 -30.796875 19.796875 -29.054688 19.234375 -27.109375 C 18.671875 -25.160156 18.207031 -23.175781 17.84375 -21.15625 C 17.476562 -19.144531 17.195312 -17.160156 17 -15.203125 C 16.800781 -13.253906 16.703125 -11.546875 16.703125 -10.078125 C 16.703125 -9.640625 16.722656 -9.09375 16.765625 -8.4375 C 16.804688 -7.789062 16.9375 -7.164062 17.15625 -6.5625 C 17.375 -5.957031 17.707031 -5.4375 18.15625 -5 C 18.613281 -4.570312 19.234375 -4.359375 20.015625 -4.359375 C 21.359375 -4.359375 22.660156 -5.191406 23.921875 -6.859375 C 25.179688 -8.523438 26.285156 -11.503906 27.234375 -15.796875 L 39.265625 -15.796875 Z M 36.65625 -3.515625 "/></g></g></g><g fill="#000000" fill-opacity="1"><g transform="translate(89.813102, 228.655809)"><g><path d="M 36.015625 0 L 20.796875 0 L 19.890625 -10.328125 L 7.859375 -10.328125 L 3.25 0 L -3.0625 0 L 16.125 -41.28125 L 31.53125 -41.28125 Z M 10.015625 -15.078125 L 19.4375 -15.078125 L 17.9375 -32.765625 Z M 10.015625 -15.078125 "/></g></g></g><g fill="#000000" fill-opacity="1"><g transform="translate(128.940135, 228.655809)"><g><path d="M 40.5 -31.453125 C 40.5 -28.898438 39.78125 -26.539062 38.34375 -24.375 C 36.914062 -22.207031 34.554688 -20.5625 31.265625 -19.4375 L 38.8125 0 L 24.3125 0 L 18.59375 -18 L 17.875 -18 L 14.046875 0 L 0 0 L 8.78125 -41.28125 L 25.875 -41.28125 C 27.863281 -41.28125 29.742188 -41.160156 31.515625 -40.921875 C 33.296875 -40.679688 34.847656 -40.203125 36.171875 -39.484375 C 37.492188 -38.773438 38.546875 -37.78125 39.328125 -36.5 C 40.109375 -35.21875 40.5 -33.535156 40.5 -31.453125 Z M 21.78125 -22.171875 C 22.90625 -22.171875 23.867188 -22.546875 24.671875 -23.296875 C 25.472656 -24.054688 26.117188 -24.976562 26.609375 -26.0625 C 27.109375 -27.144531 27.46875 -28.300781 27.6875 -29.53125 C 27.90625 -30.769531 28.015625 -31.847656 28.015625 -32.765625 C 28.015625 -33.890625 27.816406 -34.851562 27.421875 -35.65625 C 27.035156 -36.457031 26.191406 -36.859375 24.890625 -36.859375 L 21.96875 -36.859375 L 18.71875 -22.171875 Z M 21.78125 -22.171875 "/></g></g></g><g fill="#000000" fill-opacity="1"><g transform="translate(170.082014, 228.655809)"><g><path d="M 25.28125 -15.59375 L 21.96875 0 L 7.859375 0 L 11.4375 -16.703125 L 5.0625 -41.28125 L 20.671875 -41.28125 L 25.09375 -24.953125 L 34.84375 -41.28125 L 41.859375 -41.28125 Z M 25.28125 -15.59375 "/></g></g></g><g fill="#000000" fill-opacity="1"><g transform="translate(207.129197, 228.655809)"><g><path d="M 20.859375 -17.8125 C 22.160156 -17.8125 23.253906 -18.351562 24.140625 -19.4375 C 25.035156 -20.519531 25.773438 -21.835938 26.359375 -23.390625 C 26.941406 -24.953125 27.363281 -26.578125 27.625 -28.265625 C 27.882812 -29.960938 28.015625 -31.4375 28.015625 -32.6875 C 28.015625 -33.863281 27.816406 -34.851562 27.421875 -35.65625 C 27.035156 -36.457031 26.191406 -36.859375 24.890625 -36.859375 L 21.96875 -36.859375 L 17.875 -17.8125 Z M 16.96875 -13.65625 L 14.046875 0 L 0 0 L 8.78125 -41.28125 L 23.796875 -41.28125 C 26.265625 -41.28125 28.515625 -41.148438 30.546875 -40.890625 C 32.585938 -40.628906 34.34375 -40.109375 35.8125 -39.328125 C 37.289062 -38.546875 38.441406 -37.425781 39.265625 -35.96875 C 40.085938 -34.519531 40.5 -32.582031 40.5 -30.15625 C 40.5 -27.90625 40.140625 -25.769531 39.421875 -23.75 C 38.703125 -21.738281 37.550781 -19.984375 35.96875 -18.484375 C 34.394531 -16.992188 32.347656 -15.816406 29.828125 -14.953125 C 27.316406 -14.085938 24.265625 -13.65625 20.671875 -13.65625 Z M 16.96875 -13.65625 "/></g></g></g><g fill="#000000" fill-opacity="1"><g transform="translate(246.12624, 228.655809)"><g><path d="M 39.578125 -36.328125 L 29.125 -36.328125 L 21.390625 0 L 7.34375 0 L 15.078125 -36.328125 L 4.75 -36.328125 L 5.921875 -41.28125 L 40.6875 -41.28125 Z M 39.578125 -36.328125 "/></g></g></g><g fill="#000000" fill-opacity="1"><g transform="translate(282.198501, 228.655809)"><g><path d="M 26.71875 -41.921875 C 30.445312 -41.921875 33.46875 -41.441406 35.78125 -40.484375 C 38.101562 -39.535156 39.9375 -38.066406 41.28125 -36.078125 C 42.144531 -34.734375 42.8125 -33.210938 43.28125 -31.515625 C 43.757812 -29.828125 44 -27.878906 44 -25.671875 C 44 -23.765625 43.828125 -21.859375 43.484375 -19.953125 C 43.140625 -18.046875 42.648438 -16.210938 42.015625 -14.453125 C 41.390625 -12.703125 40.632812 -11.054688 39.75 -9.515625 C 38.863281 -7.984375 37.878906 -6.628906 36.796875 -5.453125 C 34.753906 -3.242188 32.398438 -1.695312 29.734375 -0.8125 C 27.066406 0.0703125 23.785156 0.515625 19.890625 0.515625 C 16.117188 0.515625 13.082031 0.128906 10.78125 -0.640625 C 8.488281 -1.421875 6.671875 -2.679688 5.328125 -4.421875 C 4.378906 -5.628906 3.632812 -7.164062 3.09375 -9.03125 C 2.550781 -10.894531 2.28125 -13.238281 2.28125 -16.0625 C 2.28125 -20.863281 3.132812 -25.160156 4.84375 -28.953125 C 6.550781 -32.742188 8.988281 -35.742188 12.15625 -37.953125 C 14.0625 -39.296875 16.179688 -40.289062 18.515625 -40.9375 C 20.859375 -41.59375 23.59375 -41.921875 26.71875 -41.921875 Z M 19.375 -4.03125 C 20.363281 -4.03125 21.300781 -4.472656 22.1875 -5.359375 C 23.082031 -6.242188 23.910156 -7.4375 24.671875 -8.9375 C 25.429688 -10.4375 26.125 -12.140625 26.75 -14.046875 C 27.375 -15.953125 27.898438 -17.921875 28.328125 -19.953125 C 28.765625 -21.992188 29.101562 -24.019531 29.34375 -26.03125 C 29.582031 -28.050781 29.703125 -29.882812 29.703125 -31.53125 C 29.703125 -33.78125 29.472656 -35.328125 29.015625 -36.171875 C 28.566406 -37.015625 27.910156 -37.4375 27.046875 -37.4375 C 26.046875 -37.4375 25.085938 -37.003906 24.171875 -36.140625 C 23.265625 -35.273438 22.410156 -34.113281 21.609375 -32.65625 C 20.804688 -31.207031 20.09375 -29.539062 19.46875 -27.65625 C 18.84375 -25.769531 18.300781 -23.828125 17.84375 -21.828125 C 17.382812 -19.835938 17.035156 -17.867188 16.796875 -15.921875 C 16.554688 -13.972656 16.4375 -12.175781 16.4375 -10.53125 C 16.4375 -8.0625 16.707031 -6.359375 17.25 -5.421875 C 17.789062 -4.492188 18.5 -4.03125 19.375 -4.03125 Z M 19.375 -4.03125 "/></g></g></g><g clip-path="url(#06cd1014fc)"><g clip-path="url(#9d92c1035c)"><g clip-path="url(#e6db9d379e)"><g clip-path="url(#8d3d852be9)"><path fill="#000000" d="M 152.84375 146.097656 C 161.554688 146.5 168.3125 153.90625 167.910156 162.605469 C 167.511719 171.304688 160.101562 178.058594 151.394531 177.65625 C 142.6875 177.257812 135.925781 169.851562 136.328125 161.152344 C 136.726562 152.453125 144.136719 145.699219 152.84375 146.097656 Z M 151.472656 175.960938 C 159.242188 176.320312 165.859375 170.292969 166.214844 162.527344 C 166.570312 154.761719 160.539062 148.152344 152.769531 147.792969 C 144.996094 147.4375 138.382812 153.464844 138.023438 161.230469 C 137.667969 168.996094 143.699219 175.605469 151.472656 175.960938 Z M 151.472656 175.960938 " fill-opacity="1" fill-rule="nonzero"/></g></g></g></g><g clip-path="url(#74ef5072d6)"><g clip-path="url(#a6c6089838)"><g clip-path="url(#aec4cfd750)"><g clip-path="url(#d1e4f56532)"><path fill="#000000" d="M 137.945312 168.867188 L 97.429688 167.003906 L 97.476562 165.988281 L 137.992188 167.851562 Z M 137.945312 168.867188 " fill-opacity="1" fill-rule="nonzero"/></g></g></g></g><g clip-path="url(#93b9105f5f)"><g clip-path="url(#42933df4e3)"><g clip-path="url(#03f385dacf)"><g clip-path="url(#b8f562d312)"><path fill="#000000" d="M 97.652344 164.394531 C 96.492188 164.34375 95.503906 165.242188 95.453125 166.402344 C 95.398438 167.566406 96.296875 168.550781 97.460938 168.605469 C 98.621094 168.65625 99.609375 167.757812 99.664062 166.597656 C 99.714844 165.4375 98.816406 164.449219 97.652344 164.394531 Z M 97.652344 164.394531 " fill-opacity="1" fill-rule="nonzero"/></g></g></g></g><g clip-path="url(#eb30a6bbff)"><g clip-path="url(#9d9c5bb7d6)"><g clip-path="url(#fa7db3f90e)"><g clip-path="url(#d7e6f0ba9c)"><path fill="#000000" d="M 137.664062 158.507812 L 97.28125 156.648438 L 97.328125 155.632812 L 137.710938 157.488281 Z M 137.664062 158.507812 " fill-opacity="1" fill-rule="nonzero"/></g></g></g></g><g clip-path="url(#28c44cb427)"><g clip-path="url(#afb5b3bce0)"><g clip-path="url(#db04e1d01c)"><g clip-path="url(#869d8e37a6)"><path fill="#000000" d="M 97.507812 154.039062 C 96.34375 153.988281 95.359375 154.886719 95.304688 156.046875 C 95.253906 157.210938 96.152344 158.195312 97.316406 158.25 C 98.476562 158.304688 99.464844 157.402344 99.515625 156.242188 C 99.570312 155.082031 98.671875 154.09375 97.507812 154.039062 Z M 97.507812 154.039062 " fill-opacity="1" fill-rule="nonzero"/></g></g></g></g><g clip-path="url(#ae456aa73a)"><g clip-path="url(#7947d9e929)"><g clip-path="url(#5c008d7acc)"><g clip-path="url(#772288c327)"><path fill="#000000" d="M 137.425781 162.410156 L 94.261719 160.425781 L 94.308594 159.40625 L 137.472656 161.394531 Z M 137.425781 162.410156 " fill-opacity="1" fill-rule="nonzero"/></g></g></g></g><g clip-path="url(#d8a6b58f9c)"><g clip-path="url(#03e49570e3)"><g clip-path="url(#3596f5341e)"><g clip-path="url(#1defe40b4e)"><path fill="#000000" d="M 94.484375 157.820312 C 93.324219 157.765625 92.335938 158.664062 92.28125 159.824219 C 92.230469 160.988281 93.128906 161.972656 94.292969 162.027344 C 95.453125 162.082031 96.441406 161.179688 96.496094 160.019531 C 96.546875 158.859375 95.648438 157.871094 94.484375 157.820312 Z M 94.484375 157.820312 " fill-opacity="1" fill-rule="nonzero"/></g></g></g></g><g clip-path="url(#8bfb2aad1f)"><g clip-path="url(#60c81cb330)"><g clip-path="url(#f96fc40e61)"><g clip-path="url(#a54bd2e950)"><path fill="#000000" d="M 141.898438 151.710938 L 89.40625 149.292969 L 89.453125 148.277344 L 141.945312 150.691406 Z M 141.898438 151.710938 " fill-opacity="1" fill-rule="nonzero"/></g></g></g></g><g clip-path="url(#b76cca61ce)"><g clip-path="url(#b0ba249d79)"><g clip-path="url(#fe5a270185)"><g clip-path="url(#1178ce2f9b)"><path fill="#000000" d="M 89.632812 146.6875 C 88.46875 146.632812 87.480469 147.53125 87.429688 148.695312 C 87.375 149.855469 88.273438 150.839844 89.4375 150.894531 C 90.601562 150.949219 91.585938 150.050781 91.640625 148.886719 C 91.695312 147.726562 90.792969 146.738281 89.632812 146.6875 Z M 89.632812 146.6875 " fill-opacity="1" fill-rule="nonzero"/></g></g></g></g><g clip-path="url(#41567b79cd)"><g clip-path="url(#29d791588d)"><g clip-path="url(#0b33013118)"><g clip-path="url(#9e13113bc8)"><path fill="#000000" d="M 142.246094 172.703125 L 54.023438 168.644531 L 54.070312 167.625 L 142.292969 171.683594 Z M 142.246094 172.703125 " fill-opacity="1" fill-rule="nonzero"/></g></g></g></g><g clip-path="url(#94a54cb32d)"><g clip-path="url(#d960654729)"><g clip-path="url(#e145350630)"><g clip-path="url(#a17c74ab6b)"><path fill="#000000" d="M 54.25 166.035156 C 53.085938 165.980469 52.097656 166.882812 52.046875 168.042969 C 51.992188 169.203125 52.890625 170.191406 54.054688 170.242188 C 55.21875 170.296875 56.203125 169.398438 56.257812 168.238281 C 56.3125 167.074219 55.410156 166.089844 54.25 166.035156 Z M 54.25 166.035156 " fill-opacity="1" fill-rule="nonzero"/></g></g></g></g><g clip-path="url(#f943d47ddd)"><g clip-path="url(#2354b01dff)"><g clip-path="url(#dcf082455e)"><g clip-path="url(#aa977d1905)"><path fill="#000000" d="M 53.269531 167.925781 L 38.871094 181.046875 L 38.300781 180.421875 L 52.699219 167.296875 Z M 53.269531 167.925781 " fill-opacity="1" fill-rule="nonzero"/></g></g></g></g><g clip-path="url(#1f3dbb8eb7)"><g clip-path="url(#9cc919b6cc)"><g clip-path="url(#96db0d5551)"><g clip-path="url(#25711679b0)"><path fill="#000000" d="M 37.46875 179.378906 C 36.75 180.03125 36.699219 181.140625 37.355469 181.855469 C 38.007812 182.574219 39.117188 182.625 39.835938 181.96875 C 40.550781 181.316406 40.601562 180.207031 39.949219 179.492188 C 39.292969 178.773438 38.183594 178.722656 37.46875 179.378906 Z M 37.46875 179.378906 " fill-opacity="1" fill-rule="nonzero"/></g></g></g></g><g clip-path="url(#a9eadfbf37)"><g clip-path="url(#ec8fc73d9e)"><g clip-path="url(#a393329095)"><g clip-path="url(#17d396c923)"><path fill="#000000" d="M 38.0625 181.90625 L 15.085938 180.847656 L 15.109375 180.339844 L 38.085938 181.398438 Z M 38.0625 181.90625 " fill-opacity="1" fill-rule="nonzero"/></g></g></g></g><g clip-path="url(#5034af64ec)"><g clip-path="url(#243125dbe0)"><g clip-path="url(#1b67a8fb08)"><g clip-path="url(#9c3d44ad4e)"><path fill="#000000" d="M 15.199219 179.546875 C 14.617188 179.519531 14.125 179.96875 14.097656 180.546875 C 14.074219 181.128906 14.523438 181.621094 15.101562 181.648438 C 15.683594 181.675781 16.175781 181.226562 16.203125 180.644531 C 16.230469 180.066406 15.78125 179.574219 15.199219 179.546875 Z M 15.199219 179.546875 " fill-opacity="1" fill-rule="nonzero"/></g></g></g></g><g clip-path="url(#4649afa390)"><g clip-path="url(#5e1dcebdc4)"><g clip-path="url(#9b90ae54d5)"><g clip-path="url(#9c8a9eea0c)"><path fill="#000000" d="M 42.847656 177.105469 L 20.105469 176.058594 L 20.128906 175.550781 L 42.871094 176.597656 Z M 42.847656 177.105469 " fill-opacity="1" fill-rule="nonzero"/></g></g></g></g><g clip-path="url(#0fcff4561f)"><g clip-path="url(#429e5c7180)"><g clip-path="url(#4a6eed1daa)"><g clip-path="url(#41bf2624ef)"><path fill="#000000" d="M 20.21875 174.753906 C 19.636719 174.726562 19.144531 175.175781 19.117188 175.757812 C 19.09375 176.335938 19.542969 176.828125 20.121094 176.855469 C 20.703125 176.882812 21.195312 176.433594 21.222656 175.851562 C 21.25 175.273438 20.800781 174.78125 20.21875 174.753906 Z M 20.21875 174.753906 " fill-opacity="1" fill-rule="nonzero"/></g></g></g></g><g clip-path="url(#b609138d08)"><g clip-path="url(#6eed9a6e24)"><g clip-path="url(#9c11179e6e)"><g clip-path="url(#3b18b5dfee)"><path fill="#000000" d="M 46.976562 172.539062 L 16.96875 171.160156 L 16.992188 170.648438 L 47 172.03125 Z M 46.976562 172.539062 " fill-opacity="1" fill-rule="nonzero"/></g></g></g></g><g clip-path="url(#0b51cdc467)"><g clip-path="url(#979def1e71)"><g clip-path="url(#78303cc634)"><g clip-path="url(#14ea739b2e)"><path fill="#000000" d="M 17.082031 169.855469 C 16.5 169.828125 16.007812 170.277344 15.980469 170.859375 C 15.953125 171.4375 16.402344 171.929688 16.984375 171.957031 C 17.5625 171.984375 18.058594 171.535156 18.085938 170.953125 C 18.109375 170.375 17.660156 169.882812 17.082031 169.855469 Z M 17.082031 169.855469 " fill-opacity="1" fill-rule="nonzero"/></g></g></g></g><g clip-path="url(#b0008d04af)"><g clip-path="url(#209f4d5b41)"><g clip-path="url(#9fb93042dd)"><g clip-path="url(#c472f92719)"><path fill="#000000" d="M 88.410156 148.75 L 73.007812 162.785156 L 72.4375 162.160156 L 87.839844 148.121094 Z M 88.410156 148.75 " fill-opacity="1" fill-rule="nonzero"/></g></g></g></g><g clip-path="url(#e1ff7b86ba)"><g clip-path="url(#3538d9595f)"><g clip-path="url(#012b6f1e61)"><g clip-path="url(#5682b308e8)"><path fill="#000000" d="M 71.601562 161.117188 C 70.882812 161.769531 70.832031 162.878906 71.488281 163.59375 C 72.140625 164.3125 73.25 164.363281 73.96875 163.710938 C 74.683594 163.054688 74.734375 161.945312 74.082031 161.230469 C 73.429688 160.511719 72.316406 160.460938 71.601562 161.117188 Z M 71.601562 161.117188 " fill-opacity="1" fill-rule="nonzero"/></g></g></g></g><g clip-path="url(#0bf9224a88)"><g clip-path="url(#4c35cf3982)"><g clip-path="url(#64dace900a)"><g clip-path="url(#78bae3d417)"><path fill="#000000" d="M 96.1875 155.875 L 95.5625 156.445312 L 79.027344 138.332031 L 79.652344 137.757812 Z M 96.1875 155.875 " fill-opacity="1" fill-rule="nonzero"/></g></g></g></g><g clip-path="url(#ac22cc6586)"><g clip-path="url(#2ec207eb24)"><g clip-path="url(#00286d5336)"><g clip-path="url(#a487539e82)"><path fill="#000000" d="M 80.695312 136.925781 C 80.039062 136.210938 78.929688 136.160156 78.214844 136.8125 C 77.496094 137.464844 77.445312 138.574219 78.101562 139.292969 C 78.753906 140.007812 79.863281 140.058594 80.582031 139.40625 C 81.296875 138.75 81.347656 137.644531 80.695312 136.925781 Z M 80.695312 136.925781 " fill-opacity="1" fill-rule="nonzero"/></g></g></g></g><g clip-path="url(#173f99d062)"><g clip-path="url(#b12200ef4a)"><g clip-path="url(#bdaf03d8d6)"><g clip-path="url(#ce9c8f34d4)"><path fill="#000000" d="M 96.261719 166.460938 L 80.96875 180.398438 L 80.394531 179.773438 L 95.6875 165.835938 Z M 96.261719 166.460938 " fill-opacity="1" fill-rule="nonzero"/></g></g></g></g><g clip-path="url(#2ee132b283)"><g clip-path="url(#5177677b11)"><g clip-path="url(#a2e7e9b25d)"><g clip-path="url(#0447b0b733)"><path fill="#000000" d="M 79.5625 178.730469 C 78.84375 179.382812 78.792969 180.492188 79.445312 181.207031 C 80.101562 181.925781 81.210938 181.976562 81.925781 181.324219 C 82.644531 180.667969 82.695312 179.558594 82.042969 178.84375 C 81.386719 178.125 80.277344 178.074219 79.5625 178.730469 Z M 79.5625 178.730469 " fill-opacity="1" fill-rule="nonzero"/></g></g></g></g><g clip-path="url(#aa415022fa)"><g clip-path="url(#13de82c788)"><g clip-path="url(#415644470e)"><g clip-path="url(#3628ebf089)"><path fill="#000000" d="M 93.222656 159.972656 L 76.039062 175.632812 L 75.46875 175.003906 L 92.652344 159.347656 Z M 93.222656 159.972656 " fill-opacity="1" fill-rule="nonzero"/></g></g></g></g><g clip-path="url(#a987e5ac35)"><g clip-path="url(#b3ccf67f55)"><g clip-path="url(#b81accc0ff)"><g clip-path="url(#987430ec6a)"><path fill="#000000" d="M 74.636719 173.964844 C 73.917969 174.617188 73.867188 175.726562 74.523438 176.441406 C 75.175781 177.160156 76.285156 177.210938 77.003906 176.558594 C 77.71875 175.902344 77.769531 174.792969 77.117188 174.078125 C 76.460938 173.363281 75.351562 173.308594 74.636719 173.964844 Z M 74.636719 173.964844 " fill-opacity="1" fill-rule="nonzero"/></g></g></g></g><g clip-path="url(#a8a72289ae)"><g clip-path="url(#c15067cd57)"><g clip-path="url(#ecfa09dcda)"><g clip-path="url(#66a86f3391)"><path fill="#000000" d="M 71.765625 163.050781 L 49.777344 162.039062 L 49.800781 161.53125 L 71.789062 162.542969 Z M 71.765625 163.050781 " fill-opacity="1" fill-rule="nonzero"/></g></g></g></g><g clip-path="url(#43a39d6f52)"><g clip-path="url(#d7e228301f)"><g clip-path="url(#e2b7ce9a79)"><g clip-path="url(#824e963573)"><path fill="#000000" d="M 49.890625 160.734375 C 49.308594 160.707031 48.816406 161.160156 48.789062 161.738281 C 48.761719 162.320312 49.214844 162.8125 49.792969 162.839844 C 50.375 162.863281 50.867188 162.414062 50.894531 161.835938 C 50.921875 161.253906 50.472656 160.761719 49.890625 160.734375 Z M 49.890625 160.734375 " fill-opacity="1" fill-rule="nonzero"/></g></g></g></g><g clip-path="url(#3ac10fc769)"><g clip-path="url(#211e1acc8b)"><g clip-path="url(#cfec89dd5d)"><g clip-path="url(#9124b56570)"><path fill="#000000" d="M 76.695312 159.363281 L 65.84375 158.863281 L 65.867188 158.355469 L 76.71875 158.851562 Z M 76.695312 159.363281 " fill-opacity="1" fill-rule="nonzero"/></g></g></g></g><g clip-path="url(#60a9cb9f55)"><g clip-path="url(#5cbca1dcf1)"><g clip-path="url(#75ca410399)"><g clip-path="url(#9903459178)"><path fill="#000000" d="M 65.957031 157.558594 C 65.375 157.53125 64.882812 157.984375 64.855469 158.5625 C 64.828125 159.140625 65.277344 159.636719 65.859375 159.664062 C 66.4375 159.6875 66.933594 159.238281 66.960938 158.660156 C 66.984375 158.078125 66.535156 157.585938 65.957031 157.558594 Z M 65.957031 157.558594 " fill-opacity="1" fill-rule="nonzero"/></g></g></g></g><g clip-path="url(#49775491b5)"><g clip-path="url(#2c03d8752a)"><g clip-path="url(#7d57b86541)"><g clip-path="url(#f8148c73c3)"><path fill="#000000" d="M 81.089844 155.089844 L 63.796875 154.292969 L 63.820312 153.785156 L 81.113281 154.582031 Z M 81.089844 155.089844 " fill-opacity="1" fill-rule="nonzero"/></g></g></g></g><g clip-path="url(#6acf6b6ba9)"><g clip-path="url(#0a37670153)"><g clip-path="url(#f85d223b76)"><g clip-path="url(#49c62fc60f)"><path fill="#000000" d="M 63.910156 152.992188 C 63.328125 152.964844 62.835938 153.414062 62.808594 153.996094 C 62.78125 154.574219 63.230469 155.066406 63.8125 155.09375 C 64.394531 155.121094 64.886719 154.671875 64.914062 154.089844 C 64.941406 153.511719 64.488281 153.019531 63.910156 152.992188 Z M 63.910156 152.992188 " fill-opacity="1" fill-rule="nonzero"/></g></g></g></g><g clip-path="url(#8cdecbc877)"><g clip-path="url(#8cd3b03ab2)"><g clip-path="url(#7f9e115128)"><g clip-path="url(#be58acb14c)"><path fill="#000000" d="M 80.464844 180.792969 L 64.242188 180.046875 L 64.265625 179.539062 L 80.488281 180.285156 Z M 80.464844 180.792969 " fill-opacity="1" fill-rule="nonzero"/></g></g></g></g><g clip-path="url(#042ebdfd11)"><g clip-path="url(#00e4dc0398)"><g clip-path="url(#e5b32e01dd)"><g clip-path="url(#acfbd77d28)"><path fill="#000000" d="M 64.355469 178.742188 C 63.773438 178.714844 63.28125 179.164062 63.253906 179.746094 C 63.226562 180.324219 63.679688 180.816406 64.257812 180.84375 C 64.839844 180.871094 65.332031 180.421875 65.359375 179.839844 C 65.386719 179.261719 64.9375 178.769531 64.355469 178.742188 Z M 64.355469 178.742188 " fill-opacity="1" fill-rule="nonzero"/></g></g></g></g><g clip-path="url(#9f56ead011)"><g clip-path="url(#44cabc5444)"><g clip-path="url(#fd5bf13f86)"><g clip-path="url(#5c5d6af84a)"><path fill="#000000" d="M 75.121094 176.046875 L 58.226562 175.269531 L 58.25 174.761719 L 75.144531 175.539062 Z M 75.121094 176.046875 " fill-opacity="1" fill-rule="nonzero"/></g></g></g></g><g clip-path="url(#12043fc704)"><g clip-path="url(#6132ccdc39)"><g clip-path="url(#d4c6d7c5f6)"><g clip-path="url(#cd5864ab90)"><path fill="#000000" d="M 58.335938 173.96875 C 57.753906 173.941406 57.265625 174.390625 57.238281 174.96875 C 57.210938 175.550781 57.660156 176.042969 58.242188 176.070312 C 58.820312 176.097656 59.316406 175.648438 59.339844 175.066406 C 59.367188 174.488281 58.917969 173.992188 58.335938 173.96875 Z M 58.335938 173.96875 " fill-opacity="1" fill-rule="nonzero"/></g></g></g></g><g clip-path="url(#f61a25130e)"><g clip-path="url(#487e707539)"><g clip-path="url(#2f9b119784)"><g clip-path="url(#74b290355f)"><path fill="#000000" d="M 78.835938 137.085938 L 58.167969 136.136719 L 58.191406 135.628906 L 78.859375 136.578125 Z M 78.835938 137.085938 " fill-opacity="1" fill-rule="nonzero"/></g></g></g></g><g clip-path="url(#9e9a47d9b2)"><g clip-path="url(#3ae2e89f86)"><g clip-path="url(#f1d3c07794)"><g clip-path="url(#702f3c1ebe)"><path fill="#000000" d="M 68.882812 135.320312 C 68.300781 135.292969 67.808594 135.742188 67.78125 136.320312 C 67.757812 136.902344 68.207031 137.394531 68.785156 137.421875 C 69.367188 137.449219 69.859375 137 69.886719 136.417969 C 69.914062 135.839844 69.464844 135.347656 68.882812 135.320312 Z M 68.882812 135.320312 " fill-opacity="1" fill-rule="nonzero"/></g></g></g></g><g clip-path="url(#4feca996b9)"><g clip-path="url(#4c3dd1e6c3)"><g clip-path="url(#27f9379b65)"><g clip-path="url(#1b0490d3f0)"><path fill="#000000" d="M 80.25 139.667969 L 65.046875 138.96875 L 65.070312 138.460938 L 80.273438 139.160156 Z M 80.25 139.667969 " fill-opacity="1" fill-rule="nonzero"/></g></g></g></g><g clip-path="url(#877ff91351)"><g clip-path="url(#493abdce54)"><g clip-path="url(#c72ce7f3c4)"><g clip-path="url(#ef293a59a1)"><path fill="#000000" d="M 65.160156 137.667969 C 64.578125 137.640625 64.085938 138.089844 64.058594 138.667969 C 64.03125 139.25 64.484375 139.742188 65.0625 139.769531 C 65.644531 139.796875 66.136719 139.34375 66.164062 138.765625 C 66.191406 138.1875 65.742188 137.691406 65.160156 137.667969 Z M 65.160156 137.667969 " fill-opacity="1" fill-rule="nonzero"/></g></g></g></g></svg>